<svg width="20" height="19" viewBox="0 0 20 19" fill="none" xmlns="http://www.w3.org/2000/svg">
<path d="M3.15426 4.54143C4.40834 4.54143 5.42497 3.5248 5.42497 2.27071C5.42497 1.01663 4.40834 0 3.15426 0C1.90018 0 0.883545 1.01663 0.883545 2.27071C0.883545 3.5248 1.90018 4.54143 3.15426 4.54143Z" fill="white"/>
<path d="M5.04628 6.05833H1.26175C1.05285 6.05833 0.883301 6.22788 0.883301 6.43679V17.7904C0.883301 17.9993 1.05285 18.1688 1.26175 18.1688H5.04628C5.25518 18.1688 5.42473 17.9993 5.42473 17.7904V6.43679C5.42473 6.22788 5.25518 6.05833 5.04628 6.05833Z" fill="white"/>
<path d="M16.324 5.42863C14.7065 4.87458 12.6833 5.36127 11.47 6.23398C11.4284 6.07125 11.28 5.95014 11.1037 5.95014H7.31913C7.11022 5.95014 6.94067 6.11969 6.94067 6.32859V17.6822C6.94067 17.8911 7.11022 18.0606 7.31913 18.0606H11.1037C11.3126 18.0606 11.4821 17.8911 11.4821 17.6822V9.52273C12.0937 8.99593 12.8816 8.82789 13.5265 9.10189C14.1517 9.36605 14.5097 10.0109 14.5097 10.87V17.6822C14.5097 17.8911 14.6793 18.0606 14.8882 18.0606H18.6727C18.8816 18.0606 19.0512 17.8911 19.0512 17.6822V10.1078C19.008 6.9977 17.5449 5.84645 16.324 5.42863Z" fill="white"/>
</svg>
