<svg id="Layer_1" data-name="Layer 1" xmlns="http://www.w3.org/2000/svg" viewBox="0 0 25 25"><defs><style>.cls-1{fill:#fff;}</style></defs><path class="cls-1" d="M11.47,17.61l-.09.36c-.25,1-.48,1.94-.75,2.9a7.57,7.57,0,0,1-.57,1.38,14.15,14.15,0,0,1-1.41,2.17l-.06.08a.16.16,0,0,1-.18.06.15.15,0,0,1-.1-.14c0-.15-.05-.31-.07-.47a14.14,14.14,0,0,1-.1-1.59,8.88,8.88,0,0,1,.18-2.18c.1-.46.21-.91.32-1.36.16-.68.32-1.35.47-2l.69-2.89a.34.34,0,0,0,0-.22,4.59,4.59,0,0,1-.32-1.52A4.08,4.08,0,0,1,9.57,11a2.88,2.88,0,0,1,.8-1.48A1.85,1.85,0,0,1,11.85,9a1.45,1.45,0,0,1,1.3,1.07,2.82,2.82,0,0,1,0,1.12,10.91,10.91,0,0,1-.39,1.57c-.19.65-.4,1.29-.56,1.94a2,2,0,0,0-.05.93,1.71,1.71,0,0,0,1.14,1.27A2.22,2.22,0,0,0,15,16.83,3.1,3.1,0,0,0,16.12,16,5.12,5.12,0,0,0,17,14.43a8.75,8.75,0,0,0,.58-2.37,11.31,11.31,0,0,0,.06-1.3A4.51,4.51,0,0,0,17,8.47,3.85,3.85,0,0,0,15.3,7a5.12,5.12,0,0,0-1.53-.42,6.35,6.35,0,0,0-1.57,0A5.46,5.46,0,0,0,8.94,8a5.4,5.4,0,0,0-1.55,2.67,5.72,5.72,0,0,0-.16,1.49,3.45,3.45,0,0,0,.5,1.77,2.45,2.45,0,0,0,.31.41.57.57,0,0,1,.12.57l-.24.93,0,.1a.38.38,0,0,1-.44.24A1.34,1.34,0,0,1,7.08,16a3.51,3.51,0,0,1-1.65-1.85A5.84,5.84,0,0,1,5,12.25,6.67,6.67,0,0,1,6.16,8a7.45,7.45,0,0,1,3-2.58,8.69,8.69,0,0,1,2.11-.69,10,10,0,0,1,1.64-.18,8.19,8.19,0,0,1,2,.16,7.15,7.15,0,0,1,3.56,1.82A6.43,6.43,0,0,1,20.3,9.57a6.36,6.36,0,0,1,.19,1.9c0,.37,0,.74-.08,1.1a9.29,9.29,0,0,1-.93,3.09,6.48,6.48,0,0,1-1.91,2.28,5.33,5.33,0,0,1-2.22,1,4.55,4.55,0,0,1-1.56.06,3.49,3.49,0,0,1-1.88-.85,2.16,2.16,0,0,1-.39-.46l0,0Z"/></svg>