<svg id="Layer_1" data-name="Layer 1" xmlns="http://www.w3.org/2000/svg" viewBox="0 0 25 25"><defs><style>.cls-1{fill:#fff;}</style></defs><path class="cls-1" d="M7.86,22.66a14.5,14.5,0,0,0,14.6-14.6c0-.21,0-.44,0-.66A10.4,10.4,0,0,0,25,4.75a10.34,10.34,0,0,1-2.94.8,5.12,5.12,0,0,0,2.25-2.84A10.38,10.38,0,0,1,21.06,4a5.14,5.14,0,0,0-8.75,4.68A14.71,14.71,0,0,1,6.46,7.08a14.62,14.62,0,0,1-4.72-3.8,5.14,5.14,0,0,0,1.59,6.85A5.24,5.24,0,0,1,1,9.49v.06a5.11,5.11,0,0,0,4.11,5,5.3,5.3,0,0,1-2.31.09,5.08,5.08,0,0,0,1.82,2.55,5.21,5.21,0,0,0,3,1,10.3,10.3,0,0,1-6.37,2.2A10.16,10.16,0,0,1,0,20.35,14.54,14.54,0,0,0,7.86,22.66Z"/></svg>