<svg id="Layer_1" data-name="Layer 1" xmlns="http://www.w3.org/2000/svg" viewBox="0 0 25 25"><defs><style>.cls-1{fill:#fff;}.cls-2{fill:#17283f;}</style></defs><path class="cls-1" d="M24.75,7.5a5.32,5.32,0,0,0-1-2.48A3.6,3.6,0,0,0,21.25,4c-3.5-.25-8.75-.25-8.75-.25h0s-5.25,0-8.75.25A3.6,3.6,0,0,0,1.25,5a5.32,5.32,0,0,0-1,2.48A38,38,0,0,0,0,11.55v1.89a37.76,37.76,0,0,0,.25,4,5.34,5.34,0,0,0,1,2.48A4.19,4.19,0,0,0,4,21c2,.19,8.5.25,8.5.25s5.25,0,8.75-.26A3.55,3.55,0,0,0,23.75,20a5.28,5.28,0,0,0,1-2.48,37.76,37.76,0,0,0,.25-4V11.55A38,38,0,0,0,24.75,7.5Z"/><polygon class="cls-2" points="9.92 15.74 9.92 8.72 16.67 12.24 9.92 15.74"/></svg>