 <svg
              width="17"
              height="17"
              viewBox="0 0 17 17"
              fill="none"
              xmlns="http://www.w3.org/2000/svg"
            >
              <g clipPath="url(#clip0)">
                <path
                  d="M15.4687 11.8969V14.0062C15.4695 14.2021 15.4294 14.3959 15.3509 14.5753C15.2725 14.7547 15.1574 14.9158 15.0131 15.0482C14.8688 15.1806 14.6985 15.2814 14.513 15.3441C14.3275 15.4068 14.1309 15.4301 13.9359 15.4125C11.7722 15.1774 9.69393 14.4381 7.86791 13.2539C6.16904 12.1744 4.7287 10.734 3.64916 9.03516C2.46087 7.20085 1.72137 5.11242 1.49057 2.93906C1.473 2.74462 1.49611 2.54866 1.55842 2.36364C1.62074 2.17862 1.72089 2.00861 1.85252 1.86442C1.98414 1.72023 2.14434 1.60503 2.32292 1.52615C2.50151 1.44727 2.69456 1.40643 2.88979 1.40625H4.99916C5.34039 1.40289 5.6712 1.52373 5.92993 1.74623C6.18866 1.96874 6.35765 2.27774 6.40541 2.61562C6.49444 3.29067 6.65956 3.95348 6.8976 4.59141C6.9922 4.84307 7.01268 5.11658 6.9566 5.37952C6.90052 5.64247 6.77024 5.88383 6.58119 6.075L5.68823 6.96797C6.68916 8.72827 8.14667 10.1858 9.90698 11.1867L10.7999 10.2937C10.9911 10.1047 11.2325 9.97442 11.4954 9.91835C11.7584 9.86227 12.0319 9.88274 12.2835 9.97734C12.9215 10.2154 13.5843 10.3805 14.2593 10.4695C14.6009 10.5177 14.9128 10.6898 15.1358 10.9529C15.3588 11.2161 15.4772 11.552 15.4687 11.8969Z"
                  stroke="white"
                  strokeWidth="1.125"
                  strokeLinecap="round"
                  strokeLinejoin="round"
                />
              </g>
              <defs>
                <clipPath id="clip0">
                  <rect width="16.875" height="16.875" fill="white" />
                </clipPath>
              </defs>
            </svg>